<svg xmlns="http://www.w3.org/2000/svg" viewBox="0 0 625.74 352.87"><title>2020</title><g id="Layer_8" data-name="Layer 8" opacity="0.05"><path d="M833.11,608.85c-2.14-5.33-2.92-12.14-9.14-15.29h0c-3.05-6.58-8.37-11.15-14.18-15-2.19-1.47-3.57-3.09-4-5.36-3.22-15.83-15.82-25.81-31.77-25.28-25.18.85-45.18,11.93-62.16,30.07a156.49,156.49,0,0,0-18,23.39,99.18,99.18,0,0,0-2.6-27.7c-3.19-13.34-5.79-27.15-15-38.21h0c-.92-1.38-2-2.69-2.75-4.14-17.26-31.7-57.79-43.24-89.36-27-25.86,13.32-37.25,33.77-26.56,62.52,3.22,8.67,6.54,18,14.87,23.74.34,2.95,3.22,3.88,4.79,5.83,3,3.7,5.94,4.58,9.07-.61a45,45,0,0,1,9.42-11.16c10.07-8.49,23.5-16.54,36.06-8.39h0a37.8,37.8,0,0,1,.7,19.08c-4.61,21-17.8,37-32,52.24-15.7,16.81-33.9,30.87-51.56,45.5q.63-6.44,1-12.93a271.45,271.45,0,0,0-5.62-71.56c-4.84-23-12-45.27-25.92-64.54-3.37-4.66-5.76-11.08-12.57-12.63h0c-4.55-5.65-10.82-8.79-17.39-11.14-2.49-.89-4.22-2.13-5.22-4.22-7-14.58-21.6-21.22-36.94-16.83-24.23,6.92-41,22.51-53,44.22a169.27,169.27,0,0,0-17.13,46.64A98.78,98.78,0,0,0,365.52,565c-7-11.78-13.63-24.17-25.74-32h0c-1.29-1-2.67-2-3.86-3.12-25.94-25.1-68.07-24-93.34.93-20.71,20.43-25.46,43.35-6.67,67.6,5.66,7.31,11.6,15.19,21.28,18.21,1.2,2.72,4.22,2.74,6.31,4.13,4,2.64,7,2.6,8.47-3.29A45.53,45.53,0,0,1,277.63,604c7.08-11.1,17.48-22.8,31.91-18.77h0a37.75,37.75,0,0,1,6.36,18c1.9,21.47-5.91,40.67-14.92,59.41-10,20.9-23.33,39.89-35.91,59.28-9.3,14.33-9.7,29.62-4.57,45.28,4.66,14.23,14.34,24.62,26.67,32.71,2.69,3.86,7.45,4.8,10.85,7.69,1.44,1.22,2.9.45,4.53-.29a89.29,89.29,0,0,1,17.22-5.66c27.09-6.2,54.37-6.8,81.79-3.61,9.95,1.16,10,1.66,10.84-8a50.13,50.13,0,0,0-1.61-18.27c17.44,16.11,37.18,25.51,62,23.55q30.13-2.39,48.31-25.25a115.15,115.15,0,0,0,12.12-18.79,70.4,70.4,0,0,0,13.07,23.15c1.42,4.49,5.68,6.81,8.06,10.57,1,1.61,2.63,1.31,4.41,1.09a89.22,89.22,0,0,1,18.13-.26c27.7,2.17,53.91,9.74,79.13,21,9.15,4.08,9.05,4.58,12.73-4.4q1-2.34,1.68-4.65c.1,1.87,1.41,3.34,2.38,4.86,13.12,20.46,30.17,34.81,55.2,39q29.82,5,53-12.81c26.51-20.36,40.1-49.32,49.74-80.28a271.91,271.91,0,0,0,11.88-70.8C843.5,654.23,842,630.92,833.11,608.85ZM345.52,726.61A358.89,358.89,0,0,0,369.69,672a201.21,201.21,0,0,0,5.25,30.68c3.69,14.8,8.5,29.07,15.93,42L390,744h0c-12.75-11.12-28.22-14.34-44.46-15.32C345.49,728,345.23,727.16,345.52,726.61ZM488.66,616.12c1.75,8.86,3.21,18.07,2.78,27-1.27,26-4.45,51.84-20,73.79-8.11,11.49-15.9,15.26-26.47,11.3-1.93-.72-2.75-2.52-4.53-3.14h0a30.77,30.77,0,0,0-1.19-3.25c-9.06-18.26-11.91-38-11.31-57.89a201.58,201.58,0,0,1,2.22-26.55c2.92-17.84,6.16-35.52,15.85-51.07,6.28-10.09,13.88-18.18,25.74-13.42h0C481.71,585.63,485.64,600.78,488.66,616.12Zm298.15,55.47c-.45,9-1.26,18.31-3.85,26.9-7.52,24.88-16.87,49.21-37.23,66.76-10.66,9.18-19.12,11-28.42,4.55-1.7-1.17-2.06-3.11-3.64-4.14h0a30.31,30.31,0,0,0-.36-3.45c-4.37-19.91-2.37-39.73,3-58.91a202.49,202.49,0,0,1,8.58-25.21c7.16-16.61,14.59-33,27.75-45.72,8.53-8.27,17.87-14.27,28.22-6.78C787.45,640.33,787.59,656,786.81,671.59ZM623.89,721.9a361.8,361.8,0,0,0,37.66-42.63,190,190,0,0,0-6,48.76c0,5.67.17,11.31.59,16.9-8.65-10.15-20.27-16.26-32.87-21C623.44,723.21,623.45,722.33,623.89,721.9Z" transform="translate(-217.11 -489.86)"/></g><g id="Layer_5" data-name="Layer 5"><path d="M663.63,789c8,12.16,17.6,22.54,31.51,27.87,20.55,7.88,40.82,9.51,61.16-1.6,23.22-12.7,37.29-33,48.29-56a207.7,207.7,0,0,0,17.89-54.18c5.72-32.83,9.42-65.81,1.5-98.93-1.65-6.88-4.37-13.31-7-19.8,6.22,3.15,7,10,9.13,15.29,8.86,22.07,10.4,45.38,9.52,68.9a270.93,270.93,0,0,1-11.88,70.79c-9.63,31-23.22,59.93-49.74,80.29q-23.16,17.79-53,12.8c-25-4.19-42.09-18.53-55.21-39C664.56,793.57,662.78,791.72,663.63,789Z" transform="translate(-217.11 -489.86)" fill="#56a0d4"/><path d="M828.24,617.51c-1.63-11.07-4.71-21.75-11.29-31.08-3.05-6.59-8.37-11.15-14.17-15-2.2-1.46-3.58-3.08-4-5.36-3.23-15.82-15.82-25.81-31.77-25.27-25.19.85-45.19,11.93-62.17,30.07-25.11,26.84-37.46,60.08-48.19,94.15a185,185,0,0,0-8.11,55.91c0,23.79,2.9,47,15.13,68.13,14.06,33.7,63.44,44.8,92.31,28.8,20.1-11.14,34.37-27.41,45-47.2A232.84,232.84,0,0,0,826.24,694C830.07,668.54,832,643.11,828.24,617.51Zm-48.45,47c-.45,9-1.26,18.31-3.85,26.89-7.51,24.88-16.87,49.22-37.23,66.76-10.65,9.18-19.12,11-28.42,4.56-1.69-1.17-2-3.11-3.63-4.15-5.88-12-5.4-25-3.93-37.6a193.46,193.46,0,0,1,30.54-83.84c5.82-9,12.79-17.09,22.9-21.67,7.76-3.52,12.29-2.71,17.72,3C780.43,633.19,780.58,648.85,779.79,664.46Z" transform="translate(-217.11 -489.86)" fill="#002d56"/><path d="M773.89,618.45c-10.36-7.49-19.69-1.48-28.23,6.78C732.5,638,725.07,654.35,717.91,671a200.94,200.94,0,0,0-8.57,25.22c-5.41,19.18-7.42,39-3.05,58.91a32.88,32.88,0,0,1,.37,3.44c-8.9-10.3-9.93-23-10.11-35.64-.34-22.62,5.61-43.94,14.2-64.83,6.2-15.07,13.52-29.22,23.89-41.75a49.29,49.29,0,0,1,4.91-5C754.51,597.72,765.45,600,773.89,618.45Z" transform="translate(-217.11 -489.86)" fill="#56a0d4"/></g><g id="Layer_4" data-name="Layer 4"><path d="M565.41,583.45c-8.33-5.78-11.64-15.07-14.87-23.74-10.69-28.76.7-49.21,26.56-62.52,31.57-16.25,72.1-4.71,89.36,27,.79,1.45,1.83,2.76,2.75,4.14,16.71,34.43,13.89,68.59-2.23,102.16-12.81,26.67-32.33,48.47-52.61,69.59-3.6,3.74-7.3,7.39-11.28,11.27,4.18,3.21,9.86,1.47,13.13,5.4,15.2,5.79,29,13.48,37.86,27.91,7.42,12.85,7.21,26.12,1.92,39.55-2.57,6.53-4.32,7.33-10.78,4.46-18.46-8.21-37.75-13.47-57.58-17.17-13.55-2.54-27.11-3.84-40.87-2.88-2.6.19-5.22.47-7.48-1.29-9.36-11.41-15.49-24.22-15.68-39.18-.22-16.48,4.72-31,17.87-41.86,17.8-14.75,36.16-28.89,52-45.84,14.19-15.2,27.38-31.19,32-52.24a37.69,37.69,0,0,0-.7-19.08A31.07,31.07,0,0,0,622,565.9c-11.35-12.15-23-13-36.23-2.42a77,77,0,0,0-13.67,14.2C570.35,580.05,569,583.07,565.41,583.45Z" transform="translate(-217.11 -489.86)" fill="#002d56"/><path d="M616.22,716.74l-17.84-3.52c18.29-17.62,35.11-35.67,49.88-55.59,15.79-21.29,27.14-44.51,29.68-71.09A111.89,111.89,0,0,0,670,532.36c-.57-1.36-1.12-2.57-.8-4,9.22,11.06,11.82,24.86,15,38.2a98.76,98.76,0,0,1,.63,43.17c-4.06,19.3-12.64,37-23.84,53.42-12.86,18.82-27.89,35.74-44.13,51.66C616.43,715.2,616.43,716.07,616.22,716.74Z" transform="translate(-217.11 -489.86)" fill="#56a0d4"/><path d="M539.29,767.32c26.59-3.44,52.09,1.69,77.5,9,11.05,3.19,21.81,6.78,32.05,11.92,3.52,1.77,3.55-.46,4.61-2.79,6.19-13.57,4.76-27.15.63-40.83,11.55,15.52,15.2,32.26,7.67,50.64-3.68,9-3.59,8.48-12.74,4.41-25.22-11.24-51.43-18.81-79.13-21a90,90,0,0,0-18.13.26c-1.77.23-3.4.52-4.41-1.08C545,774.13,540.7,771.8,539.29,767.32Z" transform="translate(-217.11 -489.86)" fill="#56a0d4"/><path d="M565.41,583.45c5.84-7.62,11.51-15.45,19.09-21.44,7-5.5,22.26-11.67,31.36-5.1,4.42,3.2,6.81,7.5,8.89,12.21-12.56-8.15-26-.1-36.06,8.38a45.3,45.3,0,0,0-9.42,11.17c-3.12,5.18-6.07,4.31-9.06.61C568.63,587.32,565.75,586.4,565.41,583.45Z" transform="translate(-217.11 -489.86)" fill="#56a0d4"/></g><g id="Layer_3" data-name="Layer 3"><path d="M399.1,758c10.68,9.86,22.54,17.6,37.32,19.41,21.85,2.67,41.91-.66,58.95-16.37,19.47-17.94,28.19-41.07,33.31-66,3.85-18.73,5.62-37.83,4.24-56.9-2.4-33.24-6.8-66.13-22.5-96.35-3.27-6.27-7.46-11.86-11.61-17.51,6.8,1.55,9.19,8,12.56,12.63,13.94,19.26,21.08,41.5,25.93,64.53A271.55,271.55,0,0,1,542.91,673c-1.85,32.37-8,63.77-28.82,89.94q-18.17,22.88-48.31,25.25c-25.3,2-45.32-7.79-63-24.46C401.11,762.16,398.93,760.79,399.1,758Z" transform="translate(-217.11 -489.86)" fill="#56a0d4"/><path d="M533.88,626.43c-2.46-25.66-6.75-50.8-16.6-74.72-4.26-10.36-9.83-20-18.47-27.43-4.56-5.65-10.83-8.79-17.4-11.15-2.49-.88-4.21-2.12-5.21-4.22-7-14.57-21.6-21.21-36.95-16.83-24.23,6.93-40.95,22.52-53,44.23-17.87,32.12-21.8,67.37-24,103a185.62,185.62,0,0,0,5.67,56.21c5.76,23.08,14.2,44.92,31.18,62.44,21.8,29.29,72.4,28.1,96.54,5.59,16.8-15.67,26.71-34.92,32.26-56.7A233.07,233.07,0,0,0,533.88,626.43ZM484.42,636c-1.26,26-4.45,51.84-20,73.79-8.11,11.49-15.89,15.26-26.47,11.3-1.92-.72-2.74-2.52-4.53-3.14-8.62-10.27-11.28-22.93-12.91-35.54a193.34,193.34,0,0,1,9.33-88.73c3.48-10.1,8.27-19.68,17-26.57,6.67-5.3,11.27-5.61,17.93-1.34,9.92,12.72,13.85,27.87,16.87,43.21C483.39,617.85,484.86,627.06,484.42,636Z" transform="translate(-217.11 -489.86)" fill="#002d56"/><path d="M464.78,565.78c-11.87-4.76-19.47,3.33-25.75,13.41-9.68,15.56-12.93,33.23-15.85,51.08A203.15,203.15,0,0,0,421,656.81c-.6,19.92,2.26,39.64,11.31,57.9a30,30,0,0,1,1.19,3.25c-11.12-7.84-15.21-20-18.44-32.13-5.81-21.87-5.19-44-1.91-66.34,2.36-16.12,6-31.62,13.07-46.3a48.11,48.11,0,0,1,3.55-6C441,550.36,452.12,549.93,464.78,565.78Z" transform="translate(-217.11 -489.86)" fill="#56a0d4"/></g><g id="Layer_2" data-name="Layer 2"><path d="M250.17,609.53c-9.68-3-15.62-10.9-21.28-18.21-18.79-24.25-14-47.17,6.67-67.6,25.28-24.94,67.4-26,93.34-.94,1.19,1.15,2.57,2.09,3.87,3.13,26.23,27.87,33.74,61.32,28.38,98.17-4.26,29.27-16.37,55.91-29.43,82.12-2.31,4.65-4.76,9.23-7.39,14.13,4.95,1.82,9.85-1.54,14.14,1.23,16.24,1,31.71,4.21,44.47,15.33,10.92,10.05,14.68,22.77,13.65,37.17-.5,7-1.94,8.29-9,7.47-20.08-2.32-40.06-1.57-60.08.81-13.69,1.64-27,4.44-39.87,9.47-2.43,1-4.84,2-7.52,1-12.34-8.09-22-18.49-26.67-32.71-5.13-15.66-4.74-31,4.56-45.28,12.58-19.4,25.88-38.38,35.92-59.28,9-18.74,16.81-37.95,14.92-59.41a37.83,37.83,0,0,0-6.37-18,30.76,30.76,0,0,0-3.58-2.25c-14.46-8.21-25.86-5.5-35.29,8.51A76.91,76.91,0,0,0,254.84,602C253.86,604.81,253.45,608.11,250.17,609.53Z" transform="translate(-217.11 -489.86)" fill="#002d56"/><path d="M338.47,721.56l-18.08,2c12.19-22.28,22.85-44.53,31-67.95,8.71-25,12.61-50.59,7.09-76.71a111.81,111.81,0,0,0-23.75-49.34c-.94-1.13-1.83-2.12-2-3.62,12.1,7.81,18.7,20.2,25.73,32a98.59,98.59,0,0,1,13.49,41c1.89,19.63-1,39.11-6.79,58.1-6.66,21.8-15.95,42.44-26.69,62.48C338.21,720,338.47,720.86,338.47,721.56Z" transform="translate(-217.11 -489.86)" fill="#56a0d4"/><path d="M280.16,792.81c24.35-11.23,50.22-13.95,76.66-14.53,11.5-.26,22.84,0,34.15,1.8,3.89.64,3.24-1.5,3.56-4,1.86-14.8-3.57-27.34-11.59-39.16,15.66,11.36,24.14,26.25,22.44,46-.83,9.67-.89,9.17-10.84,8-27.42-3.2-54.7-2.59-81.79,3.61a89.29,89.29,0,0,0-17.22,5.66c-1.63.74-3.09,1.51-4.53.28C287.6,797.61,282.84,796.67,280.16,792.81Z" transform="translate(-217.11 -489.86)" fill="#56a0d4"/><path d="M250.17,609.53c3.3-9,6.37-18.18,11.82-26.16,5-7.33,17.76-17.79,28.39-14.23,5.18,1.72,8.75,5.12,12.14,9-14.42-4-24.83,7.66-31.91,18.77A45.31,45.31,0,0,0,265,610.37c-1.43,5.88-4.5,5.93-8.46,3.29C254.4,612.27,251.37,612.24,250.17,609.53Z" transform="translate(-217.11 -489.86)" fill="#56a0d4"/></g></svg>