<svg version="1.1" id="Layer_2" xmlns="http://www.w3.org/2000/svg" xmlns:xlink="http://www.w3.org/1999/xlink" x="0px" y="0px"
	 viewBox="0 0 1080 1080" style="enable-background:new 0 0 1080 1080;" xml:space="preserve">
<g>
	<path d="M711,199.94c26.93,0,49.36,16.93,57.12,44.08c5.8,20.29,5.03,40.81,3.14,61.45c-0.16,1.75-0.3,3.51-0.45,5.26
		c0.35,0.21,0.7,0.42,1.04,0.62c3.77-3.98,7.57-7.94,11.31-11.95c12.19-13.1,24-26.58,36.65-39.22
		c9.74-9.73,20.52-18.42,30.83-27.58c1.78-1.59,3.58-2.32,5.4-2.32c1.75,0,3.54,0.67,5.37,1.91c10.82,7.27,14.68,22.18,8.18,33.44
		c-1.03,1.79-3.97,3.27-6.13,3.43c-0.14,0.01-0.27,0.01-0.41,0.01c-2.89,0-4.66-2.25-5.29-5.41c-0.78-3.96-1.91-7.85-3.15-12.83
		c-2.09,1.81-3.49,2.82-4.63,4.06c-8.61,9.38-17.05,18.91-25.78,28.18c-13.09,13.91-26.4,27.63-39.57,41.47
		c-5.96,6.26-12.05,12.42-17.6,19.03c-1.9,2.26-2.58,5.68-3.39,8.68c-7.44,27.81-13.7,55.99-22.43,83.39
		c-12.33,38.69-26.28,76.87-39.9,115.13c-8.87,24.93-20.54,48.6-35.49,70.47c-3.84,5.62-9.06,10.75-14.69,14.57
		c-3.43,2.33-6.99,3.45-10.37,3.45c-5.94,0-11.36-3.45-14.71-9.88c-3.03-5.81-5.36-12.37-6.25-18.83
		c-2.66-19.23-4.21-38.61-6.67-57.87c-1.29-10.04-3.57-19.96-5.46-29.92c-0.12-0.65-0.74-1.21-1.55-2.48
		c-3.73,4.05-7.2,7.77-10.62,11.55c-35.88,39.75-71.35,79.87-107.73,119.16c-36.47,39.39-73.43,78.34-110.93,116.75
		c-30.42,31.17-63.36,59.66-97.43,86.82c-10.48,8.35-21.21,16.22-33.71,21.27c-6.95,2.81-14.15,4.22-21.5,4.22
		c-2.5,0-5.01-0.16-7.54-0.48c-8.15-1.04-10.48-4.3-9.01-12.39c4.15-22.99,12.17-44.72,21.65-65.95
		c12.14-27.18,26.84-52.99,42.03-78.55c15.26-25.68,29.95-51.69,45.14-77.4c9.18-15.53,18.5-31.01,28.45-46.05
		c5.29-7.99,7.5-16.79,9.79-25.71c6.03-23.48,14.45-45.96,27.45-66.56c1.65-2.62,3.44-5.23,6.64-5.23c0.5,0,1.04,0.06,1.62,0.2
		c4.06,0.97,5.15,4.38,5.65,7.98c0.33,2.38,0.39,4.8,0.66,8.52c1.62-1.98,2.63-3.09,3.49-4.31c26.82-38.05,53.09-76.52,80.58-114.08
		c33.55-45.85,70.01-89.37,111.8-128.01c18.67-17.26,38.48-33.39,58.63-48.92c14.33-11.04,30.53-19.23,48.8-22.26
		C703.75,200.25,707.42,199.94,711,199.94 M396.77,619.94c1.57-1.03,2.25-2.29,2.82-3.59c19.92-45,41.77-88.97,70.23-129.3
		c8.56-12.13,17.94-23.7,27.03-35.44c1.61-2.08,3.57-3.72,6.17-3.72c0.65,0,1.35,0.1,2.09,0.33c3.89,1.2,6.05,3.86,6.55,7.88
		c0.13,1.05,0.19,2.12,0.24,3.18c1.37,25.08,0.22,50.08-2.18,75.05c-0.75,7.8-1.74,15.58-2.71,24.15c1.11-1.32,1.87-2.02,2.39-2.87
		c9.1-14.68,18.03-29.48,27.32-44.05c6.32-9.91,13.88-18.85,23.95-25.21c7.29-4.6,14.94-7.84,22.99-7.84
		c3.88,0,7.85,0.75,11.93,2.46c4.79,2.01,8.92,5.56,13.94,8.78c0.68-0.73,1.63-1.69,2.53-2.7c23.58-26.13,47.11-52.3,70.74-78.38
		c21.18-23.38,42.51-46.64,63.62-70.08c1.8-2,3.16-4.87,3.63-7.54c1.61-9.11,3.11-18.27,3.98-27.48c1.84-19.42,2.48-38.83-3.93-57.7
		c-6.1-17.96-19.37-27.43-38.33-27.93c-0.55-0.01-1.11-0.02-1.66-0.02c-14.16,0-26.84,4.84-38.83,11.87
		c-19.09,11.18-35.65,25.74-52.09,40.32c-47.29,41.95-87.83,90.1-126.47,139.88c-32.47,41.82-62.72,85.25-91.64,129.59
		c-1.76,2.7-2.71,6.38-2.81,9.64c-0.68,22.75-1.04,45.51-1.51,68.26C396.75,618.3,396.77,619.12,396.77,619.94 M644.11,617.96
		c3.42,0,5.39-2.91,7.13-5.73c5.42-8.76,11.22-17.34,15.99-26.45c16.79-32.1,28.18-66.41,39.75-100.56
		c9.58-28.27,17.91-56.97,26.62-85.53c2.55-8.35,4.52-16.89,6.76-25.34c-0.36-0.14-0.72-0.29-1.08-0.43
		c-0.76,0.69-1.58,1.33-2.27,2.09c-21.06,23.09-42.12,46.17-63.14,69.29c-17.45,19.19-34.89,38.4-52.19,57.74
		c-1.25,1.4-2.12,4.08-1.72,5.84c2.83,12.54,7.01,24.84,8.9,37.5c3.07,20.54,4.78,41.29,6.91,61.97c0.46,4.5,1.95,8.14,6.51,9.37
		C642.93,617.88,643.54,617.96,644.11,617.96 M384.01,682.22c-0.55,0-1.13-0.07-1.76-0.21c-4.04-0.92-6.11-3.74-6.54-7.74
		c-0.13-1.17,0.19-2.41,0.39-3.6c0.75-4.49,1.9-8.94,2.25-13.45c2.19-28.43,4.21-56.87,6.25-85.31c0.11-1.57-0.13-3.16-0.27-5.99
		c-1.63,1.95-2.55,2.86-3.24,3.92c-6.51,10.05-13.06,20.08-19.39,30.25c-1.57,2.52-2.81,5.42-3.49,8.31
		c-6.79,29.07-11.62,58.71-22.26,86.72c-5.62,14.8-13.26,28.84-20.15,43.15c-1.02,2.12-2.65,3.51-4.67,3.51
		c-0.89,0-1.86-0.28-2.89-0.88c-3.23-1.93-3.35-4.71-1.4-7.8c16.65-26.47,25.09-55.98,31.87-86.11c0.77-3.41,1.2-6.89,1.78-10.33
		c-2.05,1.1-3.15,2.5-4.02,4.02c-23.35,40.61-46.82,81.14-69.96,121.87c-14.4,25.34-27.13,51.51-36.2,79.3
		c-2.32,7.11-4,14.42-6.35,23.02c5.26-1.02,9.32-1.37,13.09-2.61c11.55-3.79,21.57-10.35,30.82-18.09
		c37.23-31.17,73.79-63.14,107.31-98.32c36.08-37.88,71.47-76.41,107.15-114.67c0.87-0.93,1.56-2.03,2.66-3.49
		c-7.47-3.18-7.82-8.42-5.97-14.92c2.49-8.74,4.62-17.6,6.43-26.51c6.74-33.09,10.25-66.56,10.81-100.32c0.03-2.04,0-4.09,0-6.13
		c-1.97,0.57-2.92,1.42-3.62,2.45c-9.69,14.3-19.87,28.31-28.91,43.02c-24.43,39.75-43.51,82.22-61.99,124.96
		c-3.91,9.05-7.81,18.1-11.71,27.15C388.8,680.27,386.94,682.22,384.01,682.22 M500.87,610.83c31.94-35.51,63.89-71.02,95.78-106.48
		c-4.01-4.75-9.32-7.29-14.88-7.29c-4.28,0-8.71,1.51-12.8,4.68c-6.72,5.21-13.01,11.54-17.85,18.5
		c-18.78,27.02-34.85,55.68-49.34,85.22c-0.75,1.53-1.3,3.15-1.95,4.72C500.18,610.4,500.53,610.61,500.87,610.83 M376.82,549.27
		c2.55-5.18,8.23-8.89,7.25-15.74c-0.49-0.25-0.98-0.49-1.46-0.74c-2.36,5.29-4.72,10.59-7.09,15.88
		C375.95,548.88,376.39,549.08,376.82,549.27 M711,194.94c-3.88,0-7.85,0.33-11.79,0.98c-17.66,2.93-34.83,10.74-51.04,23.23
		c-23.54,18.14-42.28,33.77-58.97,49.21c-37.93,35.06-74.71,77.17-112.44,128.73c-18.93,25.87-37.57,52.57-55.6,78.4
		c-6.86,9.83-13.92,19.94-20.95,29.95c-1-3.18-3.26-7.07-8.63-8.36c-0.94-0.23-1.88-0.34-2.78-0.34c-6.1,0-9.21,4.92-10.87,7.56
		c-12.03,19.07-21.21,41.31-28.06,67.98l-0.1,0.39c-2.2,8.55-4.27,16.62-9.01,23.8c-10.22,15.45-19.77,31.36-28.58,46.26
		c-7.17,12.13-14.34,24.52-21.27,36.51c-7.77,13.44-15.81,27.33-23.87,40.89c-14.59,24.56-29.82,51.13-42.3,79.07
		c-11.32,25.34-18.31,46.66-22,67.1c-0.64,3.53-1.14,8.68,1.81,12.71c2.94,4.02,7.97,5.08,11.49,5.53c2.73,0.35,5.48,0.53,8.17,0.53
		c8,0,15.86-1.54,23.38-4.58c12.38-5.01,22.92-12.42,34.95-22c39.12-31.17,70.22-58.89,97.89-87.24
		c36.56-37.45,73.91-76.76,111.02-116.84c25.13-27.14,50.23-55.13,74.51-82.2c10.89-12.14,22.15-24.69,33.26-37
		c1.57-1.74,3.15-3.46,4.77-5.22c0.15,0.74,0.3,1.48,0.45,2.22c1.4,6.93,2.84,14.1,3.74,21.13c1.11,8.66,2.05,17.52,2.96,26.09
		c1.11,10.43,2.25,21.23,3.72,31.83c0.92,6.64,3.26,13.72,6.77,20.46c4.16,7.99,11.14,12.57,19.14,12.57
		c4.46,0,9.02-1.49,13.18-4.31c6.2-4.2,11.89-9.85,16.02-15.89c14.65-21.43,26.79-45.53,36.07-71.61
		c2.28-6.41,4.57-12.82,6.86-19.23c11.21-31.35,22.8-63.78,33.09-96.06c5.95-18.66,10.82-37.93,15.52-56.56
		c2.24-8.88,4.57-18.07,6.97-27.05c0.11-0.4,0.21-0.81,0.32-1.22c0.54-2.08,1.15-4.44,2.07-5.54c4.39-5.23,9.27-10.31,13.98-15.22
		c1.14-1.19,2.28-2.38,3.42-3.57c5.03-5.29,10.17-10.65,15.15-15.83c8.03-8.38,16.34-17.05,24.44-25.65
		c5.48-5.82,10.92-11.83,16.18-17.64c2.57-2.83,5.21-5.75,7.84-8.63c0.38,1.52,0.71,2.96,1,4.4c1.15,5.82,5.06,9.44,10.19,9.44
		c0.25,0,0.5-0.01,0.76-0.03c3.39-0.24,8.08-2.39,10.11-5.92c7.69-13.34,3.33-31.32-9.73-40.09c-2.72-1.83-5.47-2.76-8.16-2.76
		c-3.12,0-6.05,1.2-8.72,3.58c-3.2,2.85-6.52,5.71-9.73,8.47c-7.13,6.14-14.5,12.5-21.31,19.31c-8.78,8.78-17.27,18.07-25.48,27.05
		c-3.69,4.04-7.51,8.23-11.3,12.29c-0.88,0.95-1.77,1.9-2.66,2.84c1.55-20.45,1.23-38.21-3.91-56.19
		C764.65,213.67,740.34,194.94,711,194.94L711,194.94z M402.14,598.48c0.31-16.15,0.64-32.76,1.13-49.11c0.08-2.58,0.84-5.29,2-7.06
		c31.64-48.51,61.54-90.79,91.41-129.26c33.99-43.79,75.53-94.57,125.84-139.2c15.1-13.39,32.21-28.57,51.29-39.75
		c13.02-7.63,24.56-11.18,36.31-11.18c0.51,0,1.02,0.01,1.52,0.02c17,0.45,28.35,8.71,33.73,24.54c5.81,17.11,5.68,34.61,3.69,55.62
		c-0.88,9.29-2.41,18.51-3.92,27.08c-0.32,1.8-1.27,3.78-2.42,5.06c-12.45,13.82-25.19,27.82-37.51,41.35
		c-8.56,9.41-17.42,19.13-26.1,28.72c-16.02,17.69-32.27,35.71-47.98,53.14c-7.44,8.25-14.88,16.5-22.32,24.75
		c-0.33-0.23-0.67-0.47-1-0.7c-3.21-2.25-6.52-4.58-10.27-6.16c-4.51-1.89-9.17-2.85-13.87-2.85c-8.08,0-16.48,2.82-25.66,8.61
		c-9.64,6.08-17.74,14.58-25.5,26.75c-6.15,9.65-12.24,19.55-18.12,29.13c0.11-1.06,0.22-2.13,0.32-3.2
		c2.72-28.26,3.44-53.05,2.2-75.8l-0.01-0.13c-0.06-1.09-0.12-2.21-0.27-3.39c-0.74-6-4.31-10.27-10.04-12.04
		c-1.19-0.37-2.39-0.55-3.56-0.55c-3.81,0-7.21,1.9-10.12,5.66c-2.27,2.93-4.56,5.85-6.85,8.78c-6.8,8.68-13.83,17.65-20.32,26.85
		C438.83,522.31,417.99,563.77,402.14,598.48L402.14,598.48z M624.86,507.89c0.01-0.41,0.31-1.23,0.55-1.53
		c17.28-19.32,34.53-38.32,52.15-57.7c17.86-19.64,36.04-39.58,53.65-58.88c-0.76,2.84-1.55,5.67-2.39,8.44
		c-2.06,6.75-4.13,13.61-6.13,20.24c-6.47,21.44-13.16,43.62-20.45,65.14l-1.27,3.76c-10.9,32.21-22.18,65.51-38.17,96.09
		c-3.4,6.49-7.45,12.89-11.38,19.09c-1.46,2.3-2.97,4.69-4.43,7.06c-0.62,1-2.07,3.36-2.87,3.36c-0.1,0-0.27-0.01-0.54-0.09
		c-1.06-0.28-2.38-0.64-2.83-5.05c-0.5-4.89-0.99-9.87-1.47-14.68c-1.53-15.59-3.12-31.71-5.48-47.51
		c-1.23-8.23-3.39-16.31-5.48-24.13C627.12,517.04,625.88,512.42,624.86,507.89L624.86,507.89z M384.01,687.22
		c2.7,0,7.68-1.02,10.63-7.87l0.06-0.15c3.87-9,7.75-18,11.64-26.99c17.71-40.96,37.07-84.3,61.67-124.32
		c6.26-10.18,13.23-20.25,19.96-29.98c1.03-1.49,2.08-3,3.13-4.53c-0.94,31.29-4.47,62.16-10.53,91.88
		c-1.83,9-3.97,17.79-6.34,26.14c-0.89,3.13-3.29,11.54,3.37,17.53c-10.11,10.84-20.33,21.86-30.24,32.53
		c-24.73,26.64-50.31,54.19-75.79,80.94c-34.96,36.7-73.66,70.1-106.9,97.94c-10.19,8.53-19.46,13.99-29.17,17.17
		c-1.42,0.47-2.98,0.8-4.7,1.11c0.05-0.18,0.09-0.35,0.14-0.53c1.35-5.16,2.62-10.04,4.13-14.68c8.03-24.63,19.41-49.54,35.79-78.39
		c17.02-29.96,34.5-60.31,51.42-89.67c2.58-4.48,5.16-8.96,7.74-13.44c-5.91,23.27-13.85,46.98-27.41,68.53
		c-1.85,2.94-2.46,5.81-1.8,8.54c0.43,1.77,1.62,4.28,4.88,6.22c1.77,1.05,3.6,1.59,5.44,1.59c3.83,0,7.26-2.37,9.17-6.34
		c1.83-3.8,3.76-7.66,5.62-11.4c5.16-10.36,10.5-21.07,14.7-32.14c8.08-21.27,12.9-43.64,17.56-65.28
		c1.56-7.25,3.18-14.76,4.89-22.08c0.53-2.28,1.55-4.7,2.86-6.81c4.21-6.75,8.58-13.55,12.89-20.21
		c-1.75,24.42-3.56,49.57-5.46,74.31c-0.21,2.72-0.75,5.48-1.33,8.4c-0.3,1.5-0.6,3.05-0.86,4.61c-0.04,0.22-0.08,0.43-0.12,0.65
		c-0.22,1.18-0.49,2.65-0.32,4.31c0.68,6.32,4.47,10.73,10.4,12.08C382.12,687.11,383.08,687.22,384.01,687.22L384.01,687.22z
		 M518.47,583.79c11.92-22.39,24.05-42.4,36.77-60.7c4.31-6.2,10.12-12.22,16.81-17.4c3.06-2.38,6.43-3.63,9.73-3.63
		c2.8,0,5.5,0.9,7.89,2.59L518.47,583.79L518.47,583.79z"/>
	</svg>
