<?xml version="1.0" standalone="no"?>
<!DOCTYPE svg PUBLIC "-//W3C//DTD SVG 20010904//EN"
 "http://www.w3.org/TR/2001/REC-SVG-20010904/DTD/svg10.dtd">
<svg version="1.0" xmlns="http://www.w3.org/2000/svg"
 width="1080.000000pt" height="1080.000000pt" viewBox="0 0 1080.000000 1080.000000"
 preserveAspectRatio="xMidYMid meet">
<metadata>
Created by potrace 1.11, written by Peter Selinger 2001-2013
</metadata>
<g transform="translate(0.000000,1080.000000) scale(0.100000,-0.100000)"
fill="#000000" stroke="none">
<path d="M2149 9838 c0 -18 0 -1156 -1 -2528 l0 -2495 686 -685 c377 -377
1108 -1107 1624 -1622 l939 -937 936 937 937 936 0 -1259 0 -1260 691 691 691
691 0 2232 c0 1228 -2 2234 -4 2236 -2 3 -735 -727 -1628 -1621 l-1623 -1626
-934 934 -933 933 0 574 0 574 934 -938 935 -938 1627 1625 1626 1625 0 924
c-1 508 -1 949 -2 979 l0 55 -1624 -1624 -1625 -1625 -1621 1622 c-892 892
-1624 1622 -1626 1622 -2 0 -4 -15 -5 -32z"/>
<path d="M2149 3624 c0 -27 0 -335 0 -685 l-1 -635 689 -689 688 -688 3 683 2
682 -690 690 -690 690 -1 -48z"/>
</g>
</svg>
